<?xml version="1.0" standalone="no"?>
<!DOCTYPE svg PUBLIC "-//W3C//DTD SVG 20010904//EN"
 "http://www.w3.org/TR/2001/REC-SVG-20010904/DTD/svg10.dtd">
<svg version="1.0" xmlns="http://www.w3.org/2000/svg"
 width="211.000000pt" height="239.000000pt" viewBox="0 0 211.000000 239.000000"
 preserveAspectRatio="xMidYMid meet">

<g transform="translate(0.000000,239.000000) scale(0.100000,-0.100000)"
fill="#000000" stroke="none">
<path d="M1403 2379 c-152 -25 -324 -140 -398 -266 l-19 -33 -438 0 c-478 0
-486 -1 -523 -56 -20 -28 -20 -53 -20 -984 0 -909 1 -957 18 -984 38 -57 17
-56 863 -56 697 0 779 2 810 16 66 31 64 13 64 648 l0 575 56 36 c269 172 365
507 224 785 -118 234 -375 363 -637 319z m185 -386 l78 77 64 -65 64 -65 -79
-80 -80 -80 78 -78 77 -78 -65 -64 -65 -65 -77 78 -78 77 -77 -77 -78 -77 -65
64 -65 64 76 77 77 77 -73 82 -74 81 64 64 64 65 78 -77 78 -78 78 78z m-659
-55 c-5 -18 -12 -69 -15 -113 -19 -263 145 -508 404 -602 77 -28 230 -41 300
-25 l42 10 0 -549 0 -549 -775 0 -775 0 0 930 0 930 414 0 415 0 -10 -32z"/>
<path d="M458 1339 c-21 -12 -24 -59 -6 -77 17 -17 449 -17 466 0 17 17 15 54
-4 72 -13 14 -48 16 -227 16 -125 0 -219 -5 -229 -11z"/>
<path d="M452 958 c-7 -7 -12 -24 -12 -38 0 -14 5 -31 12 -38 9 -9 114 -12
410 -12 l398 0 16 25 c15 23 15 27 0 50 l-16 25 -398 0 c-296 0 -401 -3 -410
-12z"/>
<path d="M470 587 c-30 -15 -38 -58 -15 -81 15 -14 60 -16 406 -16 376 0 390
1 409 20 24 24 25 39 6 66 -14 18 -31 19 -398 22 -295 1 -389 -1 -408 -11z"/>
</g>
</svg>
